<svg xmlns="http://www.w3.org/2000/svg" xmlns:xlink="http://www.w3.org/1999/xlink" viewBox="0 0 48 48"><path fill="#eee" d="M24 4A20 20 0 1 0 24 44A20 20 0 1 0 24 4Z"/><path fill="#d84315" d="M26.889 27.593L20.407 21.111 32.239 12.16 35.84 15.761z"/><path fill="#90a4ae" d="M22.495,23.199c-0.467,0.467-0.937,0.937-1.409,1.409c-2.31,2.31-6.999,7.131-6.999,7.131L13,35l3.261-1.087c0,0,4.821-4.689,7.131-7c0.472-0.472,0.942-0.942,1.409-1.409L22.495,23.199z"/><path fill="#ff5722" d="M16,21.111l1.018-1.018c1.407-1.407,3.686-1.407,5.093,0l5.908,5.797c1.406,1.407,1.406,3.685,0,5.092L27,32L16,21.111z M30.143,10l-1.309,1.309c-0.723,0.723-0.723,1.895,0,2.619l5.237,5.237c0.723,0.723,1.896,0.723,2.619,0L38,17.856L30.143,10z"/></svg>